<?xml version="1.0" encoding="iso-8859-1"?>
<!-- Generator: Adobe Illustrator 19.0.0, SVG Export Plug-In . SVG Version: 6.00 Build 0)  -->
<svg version="1.1" id="Capa_1" xmlns="http://www.w3.org/2000/svg" xmlns:xlink="http://www.w3.org/1999/xlink" x="0px" y="0px"
	 viewBox="0 0 512 512" style="enable-background:new 0 0 512 512;" xml:space="preserve">
<path style="fill:#AAF3FE;" d="M256,0C151.233,0,66,85.233,66,190s85.233,190,190,190s190-85.233,190-190S360.767,0,256,0z"/>
<path style="fill:#FED23C;" d="M256,0c-8.284,0-15,6.716-15,15v175c0,8.284,6.716,15,15,15h175c8.284,0,15-6.716,15-15
	C446,85.233,360.767,0,256,0z"/>
<path style="fill:#FC5E30;" d="M431,175H256c-11.294,0-18.539,12.046-13.255,22.021l81.925,154.665
	c3.892,7.351,12.997,10.098,20.287,6.228C407.283,324.832,446,260.491,446,190C446,181.716,439.284,175,431,175z"/>
<path style="fill:#FD8372;" d="M256,0c-50.75,0-98.464,19.764-134.351,55.649c-5.854,5.852-5.858,15.357,0,21.213l123.744,123.744
	c4.304,4.306,10.763,5.565,16.347,3.252c5.605-2.322,9.26-7.791,9.26-13.858V15C271,6.716,264.284,0,256,0z"/>
<path style="fill:#FB3C33;" d="M256,0v204.991c1.936,0,3.886-0.365,5.74-1.133c5.605-2.322,9.26-7.791,9.26-13.858V15
	C271,6.716,264.284,0,256,0z"/>
<path style="fill:#2E86FD;" d="M351.18,337.644l-81.925-154.665c-0.699-1.32-1.592-2.528-2.648-3.585L142.862,55.649
	c-2.813-2.813-6.628-4.394-10.606-4.394s-7.794,1.58-10.606,4.394C85.764,91.536,66,139.25,66,190c0,104.767,85.233,190,190,190
	c30.977,0,61.737-7.637,88.957-22.086C352.271,354.032,355.056,344.96,351.18,337.644z"/>
<g>
	<path style="fill:#5A5D60;" d="M446,512H66c-8.284,0-15-6.716-15-15s6.716-15,15-15h380c8.284,0,15,6.716,15,15
		S454.284,512,446,512z"/>
	<path style="fill:#5A5D60;" d="M376,452H136c-8.284,0-15-6.716-15-15s6.716-15,15-15h240c8.284,0,15,6.716,15,15
		S384.284,452,376,452z"/>
</g>
<path style="fill:#2962E0;" d="M351.18,337.644l-81.925-154.665c-0.699-1.32-1.592-2.528-2.648-3.585L256,168.787V380
	c30.977,0,61.737-7.637,88.957-22.086C352.271,354.032,355.056,344.96,351.18,337.644z"/>
<g>
	<path style="fill:#424445;" d="M446,482H256v30h190c8.284,0,15-6.716,15-15S454.284,482,446,482z"/>
	<path style="fill:#424445;" d="M376,422H256v30h120c8.284,0,15-6.716,15-15S384.284,422,376,422z"/>
</g>
<g>
</g>
<g>
</g>
<g>
</g>
<g>
</g>
<g>
</g>
<g>
</g>
<g>
</g>
<g>
</g>
<g>
</g>
<g>
</g>
<g>
</g>
<g>
</g>
<g>
</g>
<g>
</g>
<g>
</g>
</svg>
